<svg width="36" height="36" viewBox="0 0 36 36" fill="none" xmlns="http://www.w3.org/2000/svg">
<path d="M19.8223 28.9005C19.8546 25.5962 19.0169 22.9092 17.9513 22.8987C16.8856 22.8883 15.9956 25.5585 15.9633 28.8628C15.931 32.1671 16.7687 34.8542 17.8343 34.8645C18.9 34.875 19.79 32.2048 19.8223 28.9005Z" fill="white"/>
<path d="M13.6419 28.15C15.4557 25.3878 16.2038 22.6744 15.313 22.0895C14.4222 21.5046 12.2297 23.2696 10.416 26.0318C8.60228 28.794 7.85413 31.5073 8.74491 32.0923C9.63577 32.6772 11.8282 30.9122 13.6419 28.15Z" fill="white"/>
<path d="M8.84111 24.187C11.8604 22.8441 13.9568 20.966 13.5236 19.9923C13.0906 19.0185 10.2919 19.3179 7.27267 20.6609C4.25345 22.0039 2.157 23.8819 2.59012 24.8557C3.02323 25.8294 5.8219 25.53 8.84111 24.187Z" fill="white"/>
<path d="M13.1612 17.2616C13.3233 16.2083 10.8071 14.9469 7.54121 14.4442C4.2752 13.9415 1.49619 14.3879 1.33407 15.4412C1.17196 16.4945 3.68813 17.7558 6.95411 18.2585C10.22 18.7612 12.9991 18.3148 13.1612 17.2616Z" fill="white"/>
<path d="M14.3337 14.7524C15.0394 13.954 13.6043 11.5327 11.1283 9.34438C8.6523 7.1561 6.07298 6.02947 5.36725 6.828C4.66152 7.62653 6.09663 10.0478 8.57266 12.2361C11.0487 14.4244 13.628 15.551 14.3337 14.7524Z" fill="white"/>
<path d="M16.669 13.286C17.6945 12.9959 17.7963 10.183 16.8966 7.00348C15.9969 3.8239 14.4363 1.48157 13.4108 1.77173C12.3854 2.0619 12.2835 4.87468 13.1832 8.05429C14.0829 11.2338 15.6436 13.5762 16.669 13.286Z" fill="white"/>
<path d="M23.0103 8.15322C23.9726 4.99199 23.9262 2.17774 22.9067 1.86741C21.8872 1.55708 20.2806 3.86817 19.3183 7.0294C18.3561 10.1906 18.4025 13.0049 19.422 13.3152C20.4415 13.6255 22.0481 11.3145 23.0103 8.15322Z" fill="white"/>
<path d="M27.5411 12.4247C30.0594 10.2852 31.5416 7.89243 30.8516 7.08029C30.1616 6.26813 27.5607 7.34415 25.0425 9.48356C22.5241 11.623 21.042 14.0158 21.732 14.828C22.422 15.6401 25.0228 14.5642 27.5411 12.4247Z" fill="white"/>
<path d="M29.0393 18.4694C32.3146 18.0312 34.8551 16.8197 34.7137 15.7634C34.5725 14.7072 31.8028 14.2061 28.5275 14.6443C25.2523 15.0825 22.7117 16.2939 22.853 17.3502C22.9944 18.4065 25.764 18.9076 29.0393 18.4694Z" fill="white"/>
<path d="M33.2642 25.1575C33.7165 24.1926 31.6575 22.2736 28.6653 20.8713C25.6732 19.469 22.881 19.1146 22.4287 20.0795C21.9765 21.0445 24.0355 22.9635 27.0277 24.3658C30.0198 25.768 32.812 26.1225 33.2642 25.1575Z" fill="white"/>
<path d="M26.9704 32.2775C27.8725 31.7103 27.178 28.9826 25.4191 26.1852C23.6602 23.3878 21.503 21.58 20.6008 22.1472C19.6987 22.7144 20.3932 25.442 22.1521 28.2395C23.9109 31.0369 26.0682 32.8448 26.9704 32.2775Z" fill="white"/>
</svg>
